HIERARCHY
ROOT SimulationBone
{
	OFFSET 0.000000 0.000000 0.000000
	CHANNELS 6 Xposition Yposition Zposition Zrotation Yrotation Xrotation 
	JOINT Hips
	{
		OFFSET 0.000000 0.000000 0.000000
		CHANNELS 6 Xposition Yposition Zposition Zrotation Yrotation Xrotation 
		JOINT LeftUpLeg
		{
			OFFSET 0.103458 1.857831 10.548505
			CHANNELS 3 Zrotation Yrotation Xrotation
			JOINT LeftLeg
			{
				OFFSET 43.500000 -0.000031 0.000002
				CHANNELS 3 Zrotation Yrotation Xrotation
				JOINT LeftFoot
				{
					OFFSET 42.372200 0.000023 0.000003
					CHANNELS 3 Zrotation Yrotation Xrotation
					JOINT LeftToe
					{
						OFFSET 17.299997 -0.000001 -0.000010
						CHANNELS 3 Zrotation Yrotation Xrotation
						End Site
						{
							OFFSET 0.000000 0.000000 0.000000
						}
					}
				}
			}
		}
		JOINT RightUpLeg
		{
			OFFSET 0.103457 1.857828 -10.548510
			CHANNELS 3 Zrotation Yrotation Xrotation
			JOINT RightLeg
			{
				OFFSET 43.500046 -0.000015 0.000002
				CHANNELS 3 Zrotation Yrotation Xrotation
				JOINT RightFoot
				{
					OFFSET 42.372261 -0.000008 0.000023
					CHANNELS 3 Zrotation Yrotation Xrotation
					JOINT RightToe
					{
						OFFSET 17.299990 -0.000007 -0.000002
						CHANNELS 3 Zrotation Yrotation Xrotation
						End Site
						{
							OFFSET 0.000000 0.000000 0.000000
						}
					}
				}
			}
		}
		JOINT Spine
		{
			OFFSET 6.901967 -2.603726 -0.000001
			CHANNELS 3 Zrotation Yrotation Xrotation
			JOINT Spine1
			{
				OFFSET 12.588100 -0.000009 -0.000003
				CHANNELS 3 Zrotation Yrotation Xrotation
				JOINT Spine2
				{
					OFFSET 12.343202 0.000008 0.000008
					CHANNELS 3 Zrotation Yrotation Xrotation
					JOINT Neck
					{
						OFFSET 25.832897 -0.000015 -0.000004
						CHANNELS 3 Zrotation Yrotation Xrotation
						JOINT Head
						{
							OFFSET 11.766609 0.000013 -0.000006
							CHANNELS 3 Zrotation Yrotation Xrotation
							End Site
							{
								OFFSET 0.000000 0.000000 0.000000
							}
						}
					}
					JOINT LeftShoulder
					{
						OFFSET 19.745911 -1.480373 6.000098
						CHANNELS 3 Zrotation Yrotation Xrotation
						JOINT LeftArm
						{
							OFFSET 11.284123 -0.000007 -0.000032
							CHANNELS 3 Zrotation Yrotation Xrotation
							JOINT LeftForeArm
							{
								OFFSET 33.000050 0.000005 0.000031
								CHANNELS 3 Zrotation Yrotation Xrotation
								JOINT LeftHand
								{
									OFFSET 25.200008 0.000017 0.000013
									CHANNELS 3 Zrotation Yrotation Xrotation
									End Site
									{
										OFFSET 0.000000 0.000000 0.000000
									}
								}
							}
						}
					}
					JOINT RightShoulder
					{
						OFFSET 19.746092 -1.480379 -6.000077
						CHANNELS 3 Zrotation Yrotation Xrotation
						JOINT RightArm
						{
							OFFSET 11.284136 -0.000017 -0.000017
							CHANNELS 3 Zrotation Yrotation Xrotation
							JOINT RightForeArm
							{
								OFFSET 33.000099 0.000019 0.000015
								CHANNELS 3 Zrotation Yrotation Xrotation
								JOINT RightHand
								{
									OFFSET 25.199780 0.000140 0.000408
									CHANNELS 3 Zrotation Yrotation Xrotation
									End Site
									{
										OFFSET 0.000000 0.000000 0.000000
									}
								}
							}
						}
					}
				}
			}
		}
	}
}
MOTION
Frames: 13
Frame Time: 0.033333
-290.278000 0.000000 -521.396314 0.000000 259.262172 0.000000 -3.866560 88.656158 1.894891 87.588779 3.306266 -176.806220 -175.411580 4.476907 -174.474887 -19.797180 -4.817615 -6.948131 92.463959 5.908400 8.788019 21.454558 0.003102 0.000017 143.630422 1.591593 -179.016362 -43.901604 0.371734 9.273073 68.569683 -4.396648 6.858467 21.454553 -0.003079 0.000002 8.745093 0.142580 -1.865140 7.470843 0.405090 -3.717171 7.153462 0.382500 -3.719549 -2.170216 11.605907 8.999631 -18.599244 -13.425906 16.633437 -170.999305 -73.675222 -10.643334 -17.637034 58.692096 28.054133 -64.226386 -17.681847 2.478515 -2.650480 -3.051042 28.416176 -160.972191 75.281396 20.947604 -20.487383 -61.226820 -20.739040 -58.046786 17.395928 -2.189291 1.601319 12.825582 -30.961217 
-291.110215 0.000000 -518.095735 0.000000 261.193556 0.000000 -4.368055 88.571190 1.829478 86.898453 3.861973 -177.495973 -173.455099 3.007611 -173.946750 -18.321783 -5.234210 -6.345607 92.002546 5.585687 8.847981 21.454560 0.003108 0.000016 144.345612 0.040002 -178.024345 -28.356972 1.387015 5.911726 65.318014 -1.496667 7.663217 21.454553 -0.003093 0.000000 8.846136 0.214326 -1.855191 7.670681 0.550993 -3.692118 7.353293 0.528561 -3.695378 -2.227489 11.024504 8.563258 -17.954226 -12.951870 15.803125 -173.705699 -73.907851 -7.869176 -20.320007 57.377318 25.067660 -68.635492 -16.437682 2.570823 -2.809680 -1.621871 32.158546 -162.318107 75.579650 19.567517 -21.398363 -60.148114 -22.610172 -48.629881 17.546773 -1.875957 5.787627 9.520310 -25.008944 
-291.880779 0.000000 -514.684365 0.000000 262.973502 0.000000 -4.476770 88.140404 1.761691 86.435266 3.884746 -177.687049 -171.630141 2.049398 -172.928191 -18.113783 -5.708844 -5.946336 91.573446 5.371802 8.772600 21.454558 0.003115 0.000019 145.620439 -0.714093 -178.546896 -15.759587 2.480836 2.159123 64.246993 2.063001 9.542601 21.454551 -0.003097 -0.000001 8.910323 0.241156 -2.005030 7.797191 0.616670 -3.989271 7.479919 0.592459 -3.992920 -1.889081 10.825913 8.227941 -17.314639 -12.725687 15.217912 -175.006003 -74.207813 -6.538848 -22.657566 56.732074 22.465810 -71.176076 -15.432411 2.606339 -2.253580 -1.294419 32.586590 -165.182579 75.600331 16.638100 -22.775223 -58.399565 -25.316028 -38.644882 16.165548 -1.498749 9.614469 4.258431 -19.914740 
-292.594553 0.000000 -511.169076 0.000000 264.608766 0.000000 -4.631693 87.827293 1.636956 86.221411 3.912898 -177.492068 -170.369793 1.350997 -171.962266 -19.267629 -5.750414 -5.732915 90.083290 5.357165 8.650625 21.454558 0.003107 0.000020 145.999610 -1.683389 -179.093653 -11.819966 2.085095 0.370852 67.350802 2.025794 6.573894 21.454551 -0.003090 -0.000001 8.991137 0.353847 -2.119898 7.954004 0.852394 -4.210528 7.636799 0.826826 -4.215589 -1.694630 10.143377 7.774868 -16.520170 -12.394334 14.376701 -176.281390 -74.818377 -5.238892 -25.356618 56.964444 19.962590 -71.143927 -15.161352 2.586043 -2.280558 -1.134374 29.785372 -167.199602 75.521484 14.575600 -23.908042 -57.512727 -25.625705 -29.074715 13.850335 -1.138339 12.672244 -1.650339 -20.679410 
-293.234934 0.000000 -507.549076 0.000000 266.098233 0.000000 -4.838615 87.551872 1.516621 86.156048 4.157207 -176.872598 -169.942538 0.457511 -172.181979 -22.281320 -5.483425 -4.909073 88.047429 5.059291 9.063491 21.454562 0.003123 0.000016 144.992021 -2.761594 -179.219519 -16.758460 0.971080 -0.084721 67.957575 1.479057 4.165175 21.454551 -0.003094 0.000000 9.064249 0.635873 -2.164907 8.089719 1.421348 -4.280355 7.772491 1.395367 -4.288846 -1.853429 8.694555 7.206754 -15.337670 -11.922033 13.204109 -177.623413 -75.014028 -3.867759 -27.870151 57.344233 18.368851 -69.402078 -15.896936 2.564804 -1.981400 -1.230286 26.517231 -168.833616 75.602490 12.904283 -22.928518 -56.722221 -25.529454 -24.084215 11.882148 -0.928677 16.995220 -7.462671 -30.560298 
-293.796243 0.000000 -503.835674 0.000000 267.444973 0.000000 -4.749226 87.636330 1.404567 86.363923 4.443664 -175.571414 -170.432590 -0.928697 -173.667504 -27.116503 -5.079490 -2.913552 82.993963 4.230607 9.387431 21.454558 0.003098 0.000019 144.873476 -3.438904 -179.085443 -22.092693 -0.311808 0.606220 68.116500 0.338684 2.325223 21.454553 -0.003097 -0.000001 9.121053 1.021200 -2.179050 8.189739 2.193872 -4.281134 7.872362 2.167863 -4.294282 -1.254220 6.866528 6.729588 -14.984129 -10.794433 11.899335 -179.244190 -74.893489 -2.207328 -29.451960 58.200793 17.266397 -66.309088 -17.021578 2.516342 -1.271142 -1.073817 24.209510 -170.093294 75.709321 11.616221 -18.664228 -56.101210 -29.900062 -23.590456 11.850884 -0.919487 20.671552 -11.024715 -48.128327 
-294.288724 0.000000 -500.044361 0.000000 268.675098 0.000000 -4.708051 87.697479 1.308275 86.520638 4.820420 -174.080809 -173.143301 -2.271799 -175.106530 -35.699196 -4.043366 -1.077017 77.354385 2.772052 6.924164 21.454555 0.003114 0.000013 145.437458 -3.543105 178.271339 -26.014761 0.340624 3.487898 68.156156 -1.214190 3.852645 21.454550 -0.003084 0.000001 9.115280 1.385704 -2.089474 8.168427 2.915258 -4.077246 7.850777 2.890468 -4.094753 -0.443121 6.444254 5.786950 -14.382071 -10.736042 10.731306 178.552988 -74.820474 0.048160 -30.146997 59.464044 16.321536 -62.556535 -18.126099 2.443286 0.651916 -1.854123 22.455329 -169.332015 75.457478 12.394582 -14.344632 -55.345918 -35.969767 -25.070559 12.782253 -1.001459 21.618109 -12.769271 -56.000035 
-294.709601 0.000000 -496.171280 0.000000 269.811509 0.000000 -4.605643 87.891472 1.222132 86.693649 4.799201 -172.422128 -178.222148 -3.005003 -177.797447 -47.868527 -1.566371 0.769628 70.804623 0.977263 4.399294 21.454557 0.003095 0.000021 146.532365 -2.658008 178.034563 -29.465282 1.649748 4.854912 69.258029 -2.279969 3.777925 21.454553 -0.003095 0.000000 9.068787 1.653300 -2.052814 8.068332 3.445510 -3.987184 7.750471 3.421243 -4.007899 0.528961 5.191878 4.945805 -13.379075 -9.570142 9.111006 178.041790 -74.624523 0.575299 -30.579976 60.747136 16.249737 -57.861408 -19.368931 2.349155 2.038975 -4.074163 19.631652 -168.654214 76.283289 13.087193 -12.164860 -55.687762 -41.092204 -25.353228 12.864800 -1.011185 19.972038 -12.343907 -53.068193 
-295.058710 0.000000 -492.192105 0.000000 -89.118124 0.000000 -4.377452 88.408089 1.178351 87.103462 4.342677 -171.544357 175.950167 -3.527295 -179.278505 -59.692793 -0.204833 -0.107647 62.770422 -0.807132 -2.091380 21.454558 0.003113 0.000018 148.904777 -1.773497 179.762711 -31.590916 2.062008 4.757710 71.565390 -2.409224 3.343173 21.454551 -0.003096 0.000001 9.094814 1.692592 -1.864590 8.125221 3.511748 -3.607443 7.807167 3.489779 -3.628576 1.245494 4.537765 4.029716 -12.208834 -8.240797 7.497929 179.084992 -74.562122 -0.491365 -30.868603 61.442046 16.420026 -52.669972 -19.737321 2.187195 3.218492 -7.338267 16.766250 -170.485565 76.622298 11.217044 -10.915378 -55.661244 -43.376626 -26.066534 12.517168 -1.000263 16.980383 -11.467285 -43.940465 
-295.332702 0.000000 -488.091353 0.000000 -88.087257 0.000000 -4.313039 89.010353 1.258448 87.463676 4.028160 -172.009620 170.012752 -3.268703 179.258588 -68.884568 0.819008 -2.274108 64.265974 0.982423 -1.591837 21.454550 0.003104 0.000020 151.945823 -2.260899 -179.959680 -32.051124 2.040913 5.045838 73.841346 -3.023481 2.126825 21.454551 -0.003103 -0.000001 9.114778 1.617827 -1.401395 8.181093 3.330525 -2.686053 7.862782 3.314125 -2.706122 2.576852 4.021407 3.108951 -11.785092 -6.678107 5.903081 -179.025501 -74.225967 -2.420632 -30.297896 61.428003 17.074621 -47.759254 -19.394951 2.000714 4.895991 -9.529738 12.469631 -171.603872 76.750255 10.075738 -11.574034 -55.710066 -42.659449 -26.889623 11.955754 -0.977694 14.521570 -10.114947 -38.382907 
-295.549302 0.000000 -483.877647 0.000000 -87.103301 0.000000 -4.474213 89.640106 1.288954 87.566567 3.682506 -172.692468 163.467177 -2.509796 178.706955 -74.991051 1.335812 -4.571368 68.715521 2.735704 -1.448223 21.454555 0.003104 0.000027 155.167978 -2.847001 -179.757096 -31.530964 1.744758 5.239247 76.089810 -3.455696 1.103421 21.454555 -0.003095 0.000000 9.111226 1.489320 -0.971586 8.188086 3.043559 -1.836044 7.869671 3.032278 -1.854414 3.966445 3.309856 2.371640 -11.809770 -5.096021 4.507043 -178.546281 -73.934858 -2.907189 -27.550560 61.480268 17.912352 -44.236523 -19.098993 1.872733 6.053368 -10.353462 9.205095 -171.637203 76.796058 10.041904 -14.655873 -55.738978 -40.782329 -27.751462 12.388067 -1.020360 11.888085 -8.693509 -32.071659 
-295.725381 0.000000 -479.554934 0.000000 -86.171653 0.000000 -4.676807 90.538696 1.207456 87.368877 2.926596 -173.301974 157.063342 -1.174389 178.220631 -76.589029 1.346067 -6.281698 69.112765 4.208439 -0.786970 21.454551 0.003100 0.000022 159.133039 -2.765189 179.225257 -29.195329 2.112807 5.827279 77.982360 -3.843325 1.221454 21.454551 -0.003087 0.000001 9.107806 1.269445 -0.745296 8.189013 2.588403 -1.399295 7.870677 2.579766 -1.414924 4.995695 2.155607 1.801187 -12.157432 -3.681967 3.310258 -176.066485 -73.581177 -5.445179 -24.073637 61.283333 20.071926 -41.103874 -19.105193 1.783334 7.161048 -10.619763 3.367663 -173.030699 76.979777 8.620614 -19.379424 -55.561342 -36.525485 -29.291820 12.628812 -1.063678 9.489674 -4.324039 -28.401477 
-295.854599 0.000000 -475.115166 0.000000 -85.288189 0.000000 -4.973442 91.128906 1.186888 86.918626 2.662051 -173.954562 151.192412 -0.664909 178.006204 -74.469074 0.933248 -6.716771 69.742734 4.288451 -1.528566 21.454553 0.003105 0.000020 162.895572 -3.109895 179.373485 -26.591007 2.051530 5.872507 79.809312 -3.909842 1.059323 21.454551 -0.003091 0.000002 9.036430 1.103598 -0.534911 8.051846 2.241680 -0.992001 7.733535 2.235516 -1.005537 6.664739 1.521855 1.390762 -12.949717 -2.596073 2.461875 -173.189992 -73.335680 -8.394223 -19.847850 60.710758 23.024137 -38.891541 -18.661839 1.694920 9.043795 -11.142019 -0.990866 -174.445504 77.169663 7.178494 -23.904441 -55.169378 -31.107311 -32.700825 13.208644 -1.168795 8.443521 -0.717304 -27.971250 
